<?xml version="1.0" encoding="UTF-8" standalone="no"?>
<svg
   xmlns:dc="http://purl.org/dc/elements/1.1/"
   xmlns:cc="http://creativecommons.org/ns#"
   xmlns:rdf="http://www.w3.org/1999/02/22-rdf-syntax-ns#"
   xmlns:svg="http://www.w3.org/2000/svg"
   xmlns="http://www.w3.org/2000/svg"
   xmlns:xlink="http://www.w3.org/1999/xlink"
   viewBox="0 0 128 128"
   style="display:inline;enable-background:new"
   version="1.0"
   id="svg11300"
   height="128"
   width="128">
  <title
     id="title4162">Adwaita Icon Template</title>
  <defs
     id="defs3">
    <linearGradient
       id="linearGradient1965">
      <stop
         style="stop-color:#62a0ea;stop-opacity:1"
         offset="0"
         id="stop1961" />
      <stop
         style="stop-color:#1a5fb4;stop-opacity:1"
         offset="1"
         id="stop1963" />
    </linearGradient>
    <linearGradient
       id="linearGradient1959">
      <stop
         style="stop-color:#ed333b;stop-opacity:1"
         offset="0"
         id="stop1955" />
      <stop
         style="stop-color:#1a5fb4;stop-opacity:0"
         offset="1"
         id="stop1957" />
    </linearGradient>
    <radialGradient
       r="225"
       fy="-1136.1257"
       fx="58.953751"
       cy="-1136.1257"
       cx="58.953751"
       gradientTransform="matrix(0.27963724,0,0,0.19167088,14.08685,422.59065)"
       gradientUnits="userSpaceOnUse"
       id="radialGradient2319"
       xlink:href="#linearGradient1965" />
    <radialGradient
       r="225"
       fy="-173.6787"
       fx="312.7467"
       cy="-173.6787"
       cx="312.7467"
       gradientTransform="matrix(0.60444443,0,0,0.35619377,-109.038,345.86327)"
       gradientUnits="userSpaceOnUse"
       id="radialGradient2282"
       xlink:href="#linearGradient1959" />
  </defs>
  <metadata
     id="metadata4">
    <rdf:RDF>
      <cc:Work
         rdf:about="">
        <dc:format>image/svg+xml</dc:format>
        <dc:type
           rdf:resource="http://purl.org/dc/dcmitype/StillImage" />
        <dc:creator>
          <cc:Agent>
            <dc:title>GNOME Design Team</dc:title>
          </cc:Agent>
        </dc:creator>
        <dc:source />
        <cc:license
           rdf:resource="http://creativecommons.org/licenses/by-sa/4.0/" />
        <dc:title>Adwaita Icon Template</dc:title>
        <dc:subject>
          <rdf:Bag />
        </dc:subject>
        <dc:date />
        <dc:rights>
          <cc:Agent>
            <dc:title />
          </cc:Agent>
        </dc:rights>
        <dc:publisher>
          <cc:Agent>
            <dc:title />
          </cc:Agent>
        </dc:publisher>
        <dc:identifier />
        <dc:relation />
        <dc:language />
        <dc:coverage />
        <dc:description />
        <dc:contributor>
          <cc:Agent>
            <dc:title />
          </cc:Agent>
        </dc:contributor>
      </cc:Work>
      <cc:License
         rdf:about="http://creativecommons.org/licenses/by-sa/4.0/">
        <cc:permits
           rdf:resource="http://creativecommons.org/ns#Reproduction" />
        <cc:permits
           rdf:resource="http://creativecommons.org/ns#Distribution" />
        <cc:requires
           rdf:resource="http://creativecommons.org/ns#Notice" />
        <cc:requires
           rdf:resource="http://creativecommons.org/ns#Attribution" />
        <cc:permits
           rdf:resource="http://creativecommons.org/ns#DerivativeWorks" />
        <cc:requires
           rdf:resource="http://creativecommons.org/ns#ShareAlike" />
      </cc:License>
    </rdf:RDF>
  </metadata>
  <g
     transform="translate(0,-172)"
     style="display:inline"
     id="layer1">
    <g
       style="display:inline"
       id="layer9">
      <path
         id="rect1792-1-3"
         d="m 8,200 v 88 h 8 v -8 h 8 v 8 h 80 v -8 h 8 v 8 h 8 v -88 h -8 v 8 h -8 v -8 H 24 v 8 h -8 v -8 z m 8,16 h 8 v 8 h -8 z m 88,0 h 8 v 8 h -8 z m -88,16 h 8 v 8 h -8 z m 88,0 h 8 v 8 h -8 z m -88,16 h 8 v 8 h -8 z m 88,0 h 8 v 8 h -8 z m -88,16 h 8 v 8 h -8 z m 88,0 h 8 v 8 h -8 z"
         style="display:inline;opacity:1;vector-effect:none;fill:url(#radialGradient2319);fill-opacity:1;stroke:none;stroke-width:0.33206606;stroke-linecap:butt;stroke-linejoin:bevel;stroke-miterlimit:4;stroke-dasharray:0.33206605, 0.66413209;stroke-dashoffset:0;stroke-opacity:0.94881891;marker:none;marker-start:none;marker-mid:none;marker-end:none;paint-order:normal;enable-background:new" />
      <path
         id="rect1794-0-6"
         d="m 8,200 v 88 h 8 v -8 h 8 v 8 h 80 v -8 h 8 v 8 h 8 v -88 h -8 v 8 h -8 v -8 H 24 v 8 h -8 v -8 z m 8,16 h 8 v 8 h -8 z m 88,0 h 8 v 8 h -8 z m -88,16 h 8 v 8 h -8 z m 88,0 h 8 v 8 h -8 z m -88,16 h 8 v 8 h -8 z m 88,0 h 8 v 8 h -8 z m -88,16 h 8 v 8 h -8 z m 88,0 h 8 v 8 h -8 z"
         style="display:inline;opacity:1;vector-effect:none;fill:url(#radialGradient2282);fill-opacity:1;stroke:none;stroke-width:0.33206606;stroke-linecap:butt;stroke-linejoin:bevel;stroke-miterlimit:4;stroke-dasharray:0.33206605, 0.66413209;stroke-dashoffset:0;stroke-opacity:0.94881891;marker:none;marker-start:none;marker-mid:none;marker-end:none;paint-order:normal;enable-background:new" />
      <path
         id="path2574-9"
         d="m 63.999999,218 a 20,20 0 0 0 -20,20 20,20 0 0 0 20,20 20,20 0 0 0 20,-20 20,20 0 0 0 -20,-20 z m -7.90625,10 h 1.8125 0.1875 c 0.34982,-0.003 0.69558,0.0774 1,0.25 l 14,8 c 0.6214,0.34377 0.9375,1.0469 0.9375,1.75 0,0.7031 -0.3161,1.40622 -0.9375,1.75 l -14,8 c -0.30442,0.1724 -0.65018,0.252 -1,0.25 h -0.1875 -1.8125 z"
         style="display:inline;opacity:0.15;vector-effect:none;fill:#000000;fill-opacity:1;stroke:none;stroke-width:0.33206606;stroke-linecap:butt;stroke-linejoin:bevel;stroke-miterlimit:4;stroke-dasharray:0.33206605, 0.66413209;stroke-dashoffset:0;stroke-opacity:0.94881891;marker:none;marker-start:none;marker-mid:none;marker-end:none;paint-order:normal;enable-background:new" />
      <g
         transform="translate(-9e-7,8)"
         style="display:inline;fill:#ffffff;enable-background:new"
         id="g2594">
        <path
           style="opacity:1;vector-effect:none;fill:#ffffff;fill-opacity:1;stroke:none;stroke-width:0.33206606;stroke-linecap:butt;stroke-linejoin:bevel;stroke-miterlimit:4;stroke-dasharray:0.33206605, 0.66413209;stroke-dashoffset:0;stroke-opacity:0.94881891;marker:none;marker-start:none;marker-mid:none;marker-end:none;paint-order:normal"
           d="m 64,208 a 20,20 0 0 0 -20,20 20,20 0 0 0 20,20 20,20 0 0 0 20,-20 20,20 0 0 0 -20,-20 z m -7.90625,10 h 1.8125 0.1875 c 0.34982,-0.003 0.69558,0.0774 1,0.25 l 14,8 c 0.6214,0.34377 0.9375,1.0469 0.9375,1.75 0,0.7031 -0.3161,1.40622 -0.9375,1.75 l -14,8 c -0.30442,0.1724 -0.65018,0.252 -1,0.25 h -0.1875 -1.8125 z"
           id="path2574" />
      </g>
      <g
         transform="translate(-9e-7,10)"
         style="display:inline;opacity:0.15;fill:#000000;enable-background:new"
         id="g2572">
        <rect
           style="display:inline;opacity:1;vector-effect:none;fill:#000000;fill-opacity:1;stroke:none;stroke-width:0.33206606;stroke-linecap:butt;stroke-linejoin:bevel;stroke-miterlimit:4;stroke-dasharray:0.33206605, 0.66413209;stroke-dashoffset:0;stroke-opacity:0.94881891;marker:none;marker-start:none;marker-mid:none;marker-end:none;paint-order:normal;enable-background:new"
           id="rect2327-2"
           width="64"
           height="4"
           x="32"
           y="260"
           rx="2"
           ry="2" />
        <rect
           style="display:inline;opacity:1;vector-effect:none;fill:#000000;fill-opacity:1;stroke:none;stroke-width:0.24904953;stroke-linecap:butt;stroke-linejoin:bevel;stroke-miterlimit:4;stroke-dasharray:0.24904954, 0.49809907;stroke-dashoffset:0;stroke-opacity:0.94881891;marker:none;marker-start:none;marker-mid:none;marker-end:none;paint-order:normal;enable-background:new"
           id="rect2327-4-6"
           width="12"
           height="12"
           x="40"
           y="256"
           rx="6"
           ry="6" />
      </g>
      <g
         transform="translate(-9e-7,8)"
         id="g2719"
         style="display:inline;enable-background:new">
        <rect
           style="opacity:1;vector-effect:none;fill:#ffffff;fill-opacity:1;stroke:none;stroke-width:0.33206606;stroke-linecap:butt;stroke-linejoin:bevel;stroke-miterlimit:4;stroke-dasharray:0.33206605, 0.66413209;stroke-dashoffset:0;stroke-opacity:0.94881891;marker:none;marker-start:none;marker-mid:none;marker-end:none;paint-order:normal"
           id="rect2327"
           width="64"
           height="4"
           x="32"
           y="260"
           rx="2"
           ry="2" />
        <rect
           style="display:inline;opacity:1;vector-effect:none;fill:#ffffff;fill-opacity:1;stroke:none;stroke-width:0.24904953;stroke-linecap:butt;stroke-linejoin:bevel;stroke-miterlimit:4;stroke-dasharray:0.24904954, 0.49809907;stroke-dashoffset:0;stroke-opacity:0.94881891;marker:none;marker-start:none;marker-mid:none;marker-end:none;paint-order:normal;enable-background:new"
           id="rect2327-4"
           width="12"
           height="12"
           x="40"
           y="256"
           rx="6"
           ry="6" />
      </g>
      <path
         id="path1927"
         d="m 16,213 v 3 h 8 v -3 z m 88,0 v 3 h 8 v -3 z m -88,16 v 3 h 8 v -3 z m 88,0 v 3 h 8 v -3 z m -88,16 v 3 h 8 v -3 z m 88,0 v 3 h 8 v -3 z m -88,16 v 3 h 8 v -3 z m 88,0 v 3 h 8 v -3 z m -88,16 v 3 h 8 v -3 z m 88,0 v 3 h 8 v -3 z m -96,8 v 3 h 8 v -3 z m 16,0 v 3 h 80 v -3 z m 88,0 v 3 h 8 v -3 z"
         style="display:inline;opacity:0.25;vector-effect:none;fill:#000000;fill-opacity:1;stroke:none;stroke-width:0.33206606;stroke-linecap:butt;stroke-linejoin:bevel;stroke-miterlimit:4;stroke-dasharray:0.33206605, 0.66413209;stroke-dashoffset:0;stroke-opacity:0.94881891;marker:none;marker-start:none;marker-mid:none;marker-end:none;paint-order:normal;enable-background:new" />
    </g>
  </g>
</svg>
